<svg xmlns="http://www.w3.org/2000/svg" xmlns:xlink="http://www.w3.org/1999/xlink" width="51" height="34" viewBox="0 0 51 34"><defs><path id="hv9xa" d="M870.9 967.07c.13.27.13.59 0 .86A25.79 25.79 0 0 1 847.5 983a25.79 25.79 0 0 1-23.4-15.07 1.03 1.03 0 0 1 0-.86A25.79 25.79 0 0 1 847.5 952c10.37 0 19.3 6.17 23.4 15.07zm-12.8.43c0-5.9-4.75-10.69-10.6-10.69s-10.6 4.78-10.6 10.7c0 5.9 4.75 10.69 10.6 10.69s10.6-4.8 10.6-10.7zm-10.6-6.85a6.81 6.81 0 0 1 6.78 6.85 6.81 6.81 0 0 1-6.78 6.84 6.81 6.81 0 0 1-6.78-6.84 6.81 6.81 0 0 1 6.78-6.85z"/></defs><g><g transform="translate(-822 -950)"><use fill="#fff" xlink:href="#hv9xa"/></g></g></svg>