<svg xmlns="http://www.w3.org/2000/svg" xmlns:xlink="http://www.w3.org/1999/xlink" width="36" height="34" viewBox="0 0 36 34"><defs><path id="qplqa" d="M926.46 885.5l-6.5 6.41 1.54 9.05c.1.66-.16 1.31-.68 1.7a1.7 1.7 0 0 1-1.81.14l-8.02-4.28-8.03 4.28a1.7 1.7 0 0 1-1.8-.14 1.75 1.75 0 0 1-.69-1.7l1.54-9.05-6.5-6.41a1.76 1.76 0 0 1-.43-1.78c.2-.63.74-1.09 1.38-1.18l8.97-1.33 4.02-8.23a1.7 1.7 0 0 1 3.07 0l4.02 8.23 8.97 1.32a1.75 1.75 0 0 1 .95 2.96z"/></defs><g><g transform="translate(-893 -871)"><use fill="#adadad" xlink:href="#qplqa"/></g></g></svg>